# xmcd
# 
# Track frame offsets:
#     150
#     11087
#     21005
#     32230
#     39835
#     51130
#     66562
#     76462
#     88732
#     99860
#     112517
#     124755
#     132467
#     144240
#     156735
#     169462
# 
# Disc length: 2438
# 
# Revision: 4
# Processed by: cddbd v1.5.2PL0 Copyright (c) Steve Scherf et al.
# Submitted via: fre:ac v1.0.31
# 
DISCID=d4098410
DTITLE=Various Artist - The Best Of Country and Western, Vol.1
DYEAR=1990
DGENRE=Country
TTITLE0=Hank Parker - Bonanza
TTITLE1=Johnny Cash - Hey Porter
TTITLE2=The Nashville Gamblers - In The Streets Of Laredo
TTITLE3=Dave Dudley - Six Days On The Road
TTITLE4=Buddy Meredith - A New Girl In Town
TTITLE5=The Nashville Gamblers - The Roving Gambler
TTITLE6=Dave Dudley - Cowboy Boots
TTITLE7=Frankie Laine - Do Not Forsake Me (High Noon)
TTITLE8=The Nashville Gamblers - Who's Gonna Be Your Man
TTITLE9=Johnny Cash - Folsom Prison Blues
TTITLE10=Bobby Bare - Roses Are Red, My Love
TTITLE11=The Nashville Gamblers - Texs Stomp
TTITLE12=Dave Dudley - Denims And Diamonds
TTITLE13=Bobby Bare - When I Want To Love A Lady
TTITLE14=Dave Dudley - Salvation Arms
TTITLE15=Rick Johnson - If You're Goin' To Tulsa
EXTD=ARIOLA/Miller GmbH
EXTT0=
EXTT1=
EXTT2=
EXTT3=
EXTT4=
EXTT5=
EXTT6=
EXTT7=
EXTT8=
EXTT9=
EXTT10=
EXTT11=
EXTT12=
EXTT13=
EXTT14=
EXTT15=
PLAYORDER=
